<svg width="56" height="61" viewBox="0 0 56 61" fill="none" xmlns="http://www.w3.org/2000/svg">
<path d="M53 0.00195312H19C17.3433 0.00195312 16 1.34521 16 3.00195V6.00195H3C1.34326 6.00195 0 7.34521 0 9.00195V57.002C0 58.6587 1.34326 60.002 3 60.002H37C38.6567 60.002 40 58.6587 40 57.002V54.002H53C54.6567 54.002 56 52.6587 56 51.002V3.00195C56 1.34521 54.6567 0.00195312 53 0.00195312ZM46 2.00195H48V4.76611L47.8999 4.55518C47.7119 4.23975 47.3721 4.04639 47.0049 4.04639C46.6382 4.04639 46.2978 4.23975 46.1099 4.55518L46.0098 4.76611L46 2.00195ZM37 58.002H3C2.44775 58.002 2 57.5542 2 57.002V9.00195C2 8.44971 2.44775 8.00195 3 8.00195H28V15.002C27.9946 15.4702 28.3149 15.8794 28.771 15.9868C29.2266 16.0938 29.6958 15.8706 29.8999 15.4487L31 13.2378L32.1001 15.4487C32.3042 15.8706 32.7734 16.0938 33.229 15.9868C33.6851 15.8794 34.0054 15.4702 34 15.002V8.00195H37C37.5522 8.00195 38 8.44971 38 9.00195V21.626C37.541 22.2104 36.9907 22.7168 36.3701 23.126C35.3379 23.7026 34.1743 24.0044 32.9922 24.002L30.9922 24.0181C30.4429 24.0225 30 24.4688 30 25.0181V32.5679C29.9893 35.6743 31.5908 38.564 34.23 40.2021L38 42.5562V57.002C38 57.5542 37.5522 58.002 37 58.002ZM30 8.00195H32V10.7661L31.8999 10.5552C31.7119 10.2397 31.3721 10.0464 31.0049 10.0464C30.6382 10.0464 30.2978 10.2397 30.1099 10.5552L30.0098 10.7661L30 8.00195ZM39 40.8228L35.29 38.502C33.2383 37.2285 31.9932 34.9829 32 32.5679V26.0098L33 26.002C34.5176 26.0049 36.0107 25.6191 37.3369 24.8809C37.96 24.5137 38.5215 24.0503 39 23.5078C39.4751 24.0469 40.0317 24.5078 40.6499 24.874C41.977 25.6152 43.4722 26.0034 44.9922 26.002L46 26.0098V32.5679C46.0068 34.9829 44.7617 37.2285 42.71 38.502L39 40.8228ZM54 51.002C54 51.5542 53.5522 52.002 53 52.002H40V42.5562L43.771 40.2021C46.4097 38.5635 48.0103 35.6738 48 32.5679V25.0181C48 24.4688 47.5571 24.0225 47.0078 24.0181L45 24.002C43.8154 24.0044 42.6504 23.7017 41.6172 23.123C41.0015 22.7134 40.4556 22.208 40 21.626V9.00195C40 7.34521 38.6567 6.00195 37 6.00195H18V3.00195C18 2.44971 18.4478 2.00195 19 2.00195H44V9.00195C43.9946 9.47021 44.3149 9.87939 44.771 9.98682C45.2266 10.0938 45.6958 9.87061 45.8999 9.44873L47 7.23779L48.1001 9.44873C48.3042 9.87061 48.7734 10.0938 49.229 9.98682C49.6851 9.87939 50.0054 9.47021 50 9.00195V2.00195H53C53.5522 2.00195 54 2.44971 54 3.00195V51.002Z" fill="#A5CE39"/>
<path d="M6 22.002H14V24.002H6V22.002Z" fill="#A5CE39"/>
<path d="M16 22.002H20V24.002H16V22.002Z" fill="#A5CE39"/>
<path d="M22 22.002H28V24.002H22V22.002Z" fill="#A5CE39"/>
<path d="M6 26.002H12V28.002H6V26.002Z" fill="#A5CE39"/>
<path d="M14 26.002H16V28.002H14V26.002Z" fill="#A5CE39"/>
<path d="M18 26.002H28V28.002H18V26.002Z" fill="#A5CE39"/>
<path d="M6 30.002H14V32.002H6V30.002Z" fill="#A5CE39"/>
<path d="M16 30.002H22V32.002H16V30.002Z" fill="#A5CE39"/>
<path d="M24 30.002H28V32.002H24V30.002Z" fill="#A5CE39"/>
<path d="M6 34.002H28V36.002H6V34.002Z" fill="#A5CE39"/>
<path d="M6 38.002H12V40.002H6V38.002Z" fill="#A5CE39"/>
<path d="M14 38.002H24V40.002H14V38.002Z" fill="#A5CE39"/>
<path d="M26 38.002H28V40.002H26V38.002Z" fill="#A5CE39"/>
<path d="M6 42.002H8V44.002H6V42.002Z" fill="#A5CE39"/>
<path d="M10 42.002H16V44.002H10V42.002Z" fill="#A5CE39"/>
<path d="M18 42.002H34V44.002H18V42.002Z" fill="#A5CE39"/>
<path d="M6 12.002H8V14.002H6V12.002Z" fill="#A5CE39"/>
<path d="M10 12.002H19V14.002H10V12.002Z" fill="#A5CE39"/>
<path d="M6 16.002H19V18.002H6V16.002Z" fill="#A5CE39"/>
<path d="M43.293 27.2949L38 32.5879L35.707 30.2949L34.293 31.709L37.293 34.709C37.6836 35.0991 38.3164 35.0991 38.707 34.709L44.707 28.709L43.293 27.2949Z" fill="#A5CE39"/>
<path d="M42 14.002H50V16.002H42V14.002Z" fill="#A5CE39"/>
<path d="M42 18.002H50V20.0019H42V18.002Z" fill="#A5CE39"/>
<path d="M42 44.002H50V46.002H42V44.002Z" fill="#A5CE39"/>
<path d="M42 48.002H50V50.0019H42V48.002Z" fill="#A5CE39"/>
</svg>
