<svg width="26" height="26" viewBox="0 0 26 26" fill="none" xmlns="http://www.w3.org/2000/svg">
<path d="M4.29895 25.5846C6.27139 25.5846 7.87036 23.9855 7.87036 22.013C7.87036 20.0405 6.27139 18.4414 4.29895 18.4414C2.32651 18.4414 0.727539 20.0405 0.727539 22.013C0.727539 23.9855 2.32651 25.5846 4.29895 25.5846Z" fill="white"/>
<path d="M0.727539 8.91797V13.6804C7.2918 13.6804 12.6329 19.0197 12.6329 25.584H17.3936C17.3936 16.3947 9.91679 8.91797 0.727539 8.91797Z" fill="white"/>
<path d="M0.727539 0.583984V5.34648C11.8883 5.34648 20.9668 14.4233 20.9668 25.584H25.7275C25.7275 11.7983 14.5133 0.583984 0.727539 0.583984Z" fill="white"/>
</svg>
