<svg width="61" height="61" viewBox="0 0 61 61" fill="none" xmlns="http://www.w3.org/2000/svg">
<path d="M59.9001 14.2227C59.6935 13.4546 59.1896 12.7999 58.5002 12.4029C57.8102 12.004 56.9899 11.8961 56.2204 12.1026C55.4518 12.3096 54.797 12.813 54.4001 13.5025L53.9001 14.3726C53.425 14.0997 52.818 14.2603 52.5402 14.733L50.0002 19.0626L49.13 18.5626C48.8996 18.4293 48.6252 18.3931 48.3683 18.4625C48.111 18.5323 47.8923 18.7012 47.7599 18.9327C47.4889 19.4107 47.654 20.0181 48.13 20.2925L49.0002 20.7925L40.5002 35.5225L38.4001 41.1329L37.4001 43.0025C36.8146 44.021 36.8771 45.2872 37.5602 46.2427L35.3102 49.0025L34.6803 47.4229C34.3962 46.7188 33.7384 46.2364 32.9821 46.1773C32.2253 46.1177 31.5002 46.4917 31.11 47.1426L30.7502 47.7525L30.4103 43.7525C30.3322 42.8062 29.5993 42.0455 28.6569 41.9312C27.714 41.8174 26.8215 42.3824 26.5202 43.2828L24.0602 50.6626C23.8884 51.1846 24.1696 51.7471 24.6901 51.9229C24.7878 51.9683 24.8927 51.9957 25.0002 52.0025C25.4299 52.004 25.8127 51.73 25.9504 51.3228L28.4001 43.9429L28.7502 48.0025C28.8224 48.8687 29.445 49.5889 30.2917 49.7852C31.1384 49.9815 32.0143 49.6084 32.4601 48.8628L32.8302 48.2525L33.4504 49.8228C33.7135 50.4844 34.3088 50.9566 35.0134 51.0616C35.7179 51.1666 36.425 50.8887 36.8703 50.3326L39.2004 47.3829C39.4582 47.4502 39.7238 47.4839 39.9904 47.483C41.0622 47.4913 42.0573 46.9268 42.6003 46.0025L43.6003 44.3326L47.4103 39.7027L56.0002 24.7925L56.8703 25.2925C57.1022 25.4253 57.2712 25.6446 57.34 25.9029C57.4093 26.1592 57.3732 26.4327 57.2404 26.6627L53.2404 33.5928C53.0895 33.8204 53.0383 34.0997 53.0988 34.3663C53.1593 34.6324 53.3258 34.8624 53.5602 35.0025C53.7907 35.1363 54.0651 35.1724 54.3219 35.1031C54.5793 35.0333 54.798 34.8643 54.9303 34.6329L58.9303 27.7027C59.3293 27.0127 59.4372 26.1924 59.2301 25.4229C59.0231 24.6544 58.5197 23.9996 57.8302 23.6026L56.9601 23.1026L59.4601 18.7725C59.7331 18.2974 59.5724 17.691 59.1003 17.4127L59.6003 16.5425C60.0099 15.8419 60.1183 15.0049 59.9001 14.2227ZM56.13 14.5025C56.2624 14.2711 56.4821 14.1016 56.7404 14.0328C56.9972 13.9693 57.2687 14.0049 57.5002 14.1329C57.7321 14.2652 57.901 14.4849 57.9704 14.7427C58.0339 14.9996 57.9982 15.2711 57.8703 15.5025L57.3703 16.3726L55.63 15.3726L56.13 14.5025ZM42.5002 42.4229L42.0002 42.1329L40.5202 41.2725L41.9401 37.4727L45.09 39.2925L42.5002 42.4229ZM39.5002 45.3125C39.0778 45.0181 38.9479 44.4517 39.2004 44.0025L39.7004 43.1329L41.4401 44.1329L40.9401 44.9927C40.8 45.2359 40.5646 45.4087 40.2907 45.4698C40.0168 45.5303 39.7301 45.4737 39.5002 45.3125ZM46.2301 37.6529L42.7702 35.6529L50.7702 21.7925L54.2301 23.7925L46.2301 37.6529ZM55.2301 22.0626L51.7702 20.0626L53.7702 16.6026L57.2301 18.6026L55.2301 22.0626Z" fill="#A5CE39"/>
<path d="M15.7798 44.8127L12.2402 48.343L10.1201 46.2229C9.72998 45.8352 9.1001 45.8352 8.70996 46.2229C8.52051 46.4108 8.41406 46.6662 8.41406 46.9328C8.41406 47.1994 8.52051 47.4553 8.70996 47.6428L10.8301 49.7629C11.2051 50.135 11.7119 50.3435 12.2402 50.343C12.7715 50.3459 13.2827 50.1374 13.6602 49.7629L17.1899 46.2229C17.5298 45.8259 17.5068 45.2346 17.1377 44.8654C16.7681 44.4958 16.1768 44.4729 15.7798 44.8127Z" fill="#A5CE39"/>
<path d="M4 47.5017C4 52.1965 7.80567 56.0017 12.5 56.0017C17.1943 56.0017 21 52.1965 21 47.5017C21 46.9494 20.5522 46.5017 20 46.5017C19.4478 46.5017 19 46.9494 19 47.5017C19 51.0915 16.0898 54.0017 12.5 54.0017C8.91016 54.0017 6 51.0915 6 47.5017C6 43.9118 8.91016 41.0017 12.5 41.0017C13.9072 40.9978 15.2769 41.4543 16.3999 42.302C16.8418 42.6335 17.4688 42.5437 17.7998 42.1018C18.1314 41.6599 18.042 41.0334 17.6001 40.7019C15.0244 38.7702 11.5781 38.4597 8.69873 39.8991C5.81885 41.3391 4 44.2824 4 47.5017Z" fill="#A5CE39"/>
<path d="M36 8.00195C36.5522 8.00195 37 7.55469 37 7.00195C37 6.44971 36.5522 6.00195 36 6.00195H10C9.44775 6.00195 9 6.44971 9 7.00195V11.002C9 11.5547 9.44775 12.002 10 12.002H36C36.5522 12.002 37 11.5547 37 11.002C37 10.4497 36.5522 10.002 36 10.002H11V8.00195H36Z" fill="#A5CE39"/>
<path d="M13 14.002C12.4478 14.002 12 14.4497 12 15.002C12 15.5547 12.4478 16.002 13 16.002H33C33.5522 16.002 34 15.5547 34 15.002C34 14.4497 33.5522 14.002 33 14.002H13Z" fill="#A5CE39"/>
<path d="M39 21.002H17C16.4478 21.002 16 21.4497 16 22.002C16 22.5547 16.4478 23.002 17 23.002H39C39.5522 23.002 40 22.5547 40 22.002C40 21.4497 39.5522 21.002 39 21.002Z" fill="#A5CE39"/>
<path d="M29 28.002C29 27.4497 28.5522 27.002 28 27.002H8C7.44775 27.002 7 27.4497 7 28.002C7 28.5547 7.44775 29.002 8 29.002H28C28.5522 29.002 29 28.5547 29 28.002Z" fill="#A5CE39"/>
<path d="M39 27.002H32C31.4478 27.002 31 27.4497 31 28.002C31 28.5547 31.4478 29.002 32 29.002H39C39.5522 29.002 40 28.5547 40 28.002C40 27.4497 39.5522 27.002 39 27.002Z" fill="#A5CE39"/>
<path d="M18 34.002C18.5522 34.002 19 33.5547 19 33.002C19 32.4497 18.5522 32.002 18 32.002H8C7.44775 32.002 7 32.4497 7 33.002C7 33.5547 7.44775 34.002 8 34.002H18Z" fill="#A5CE39"/>
<path d="M22 34.002H29C29.5522 34.002 30 33.5547 30 33.002C30 32.4497 29.5522 32.002 29 32.002H22C21.4478 32.002 21 32.4497 21 33.002C21 33.5547 21.4478 34.002 22 34.002Z" fill="#A5CE39"/>
<path d="M45 46.002C44.4478 46.002 44 46.4497 44 47.002V57.002C44 57.5547 43.5522 58.002 43 58.002H3C2.44775 58.002 2 57.5547 2 57.002V3.00195C2 2.44971 2.44775 2.00195 3 2.00195H43C43.5522 2.00195 44 2.44971 44 3.00195V21.7822C44 22.3345 44.4478 22.7822 45 22.7822C45.5522 22.7822 46 22.3345 46 21.7822V3.00195C46 1.34521 44.6567 0.00195312 43 0.00195312H3C1.34326 0.00195312 0 1.34521 0 3.00195V57.002C0 58.6592 1.34326 60.002 3 60.002H43C44.6567 60.002 46 58.6592 46 57.002V47.002C46 46.4497 45.5522 46.002 45 46.002Z" fill="#A5CE39"/>
</svg>
