<svg width="60" height="61" viewBox="0 0 60 61" fill="none" xmlns="http://www.w3.org/2000/svg">
<path d="M54.9524 43.1149V10.2373C54.9524 7.44741 52.7604 5.25586 49.9709 5.25586H39.0117V7.24844H49.9709C51.6643 7.24844 52.9598 8.54343 52.9598 10.2373V43.1149H54.9524Z" fill="#A5CE39"/>
<path d="M5.1377 40.125V50.0879C5.1377 52.8773 7.32924 55.0694 10.1192 55.0694H44.9894V53.0768H10.1192C8.42526 53.0768 7.13028 51.7813 7.13028 50.0879V40.125H5.1377Z" fill="#A5CE39"/>
<path d="M42.001 10.2383H50.9676V12.2309H42.001V10.2383Z" fill="#A5CE39"/>
<path d="M43.9932 15.2188H50.9672V17.2113H43.9932V15.2188Z" fill="#A5CE39"/>
<path d="M43.9932 20.1992H50.9672V22.1918H43.9932V20.1992Z" fill="#A5CE39"/>
<path d="M43.9932 25.1816H50.9672V27.1742H43.9932V25.1816Z" fill="#A5CE39"/>
<path d="M43.9932 30.1641H50.9672V32.1567H43.9932V30.1641Z" fill="#A5CE39"/>
<path d="M44.9893 35.1445H50.967V37.1371H44.9893V35.1445Z" fill="#A5CE39"/>
<path d="M9 44.002H28V46.002H9V44.002Z" fill="#A5CE39"/>
<path d="M34 44.002H39V46.002H34V44.002Z" fill="#A5CE39"/>
<path d="M28.4992 48.5011H39.5008V49.5028H28.4992V48.5011Z" stroke="#A5CE39" stroke-width="0.998367"/>
<path d="M9.49918 48.5011H20.5008V49.5028H9.49918V48.5011Z" stroke="#A5CE39" stroke-width="0.998367"/>
<path d="M48.277 42.0189C47.6791 41.4211 46.982 41.1224 46.1847 41.1224H45.4876L38.3141 33.0523C44.8897 23.4878 42.5979 10.4363 33.0339 3.76145C23.4694 -2.9139 10.3182 -0.423173 3.74255 9.0416C-2.83258 18.5064 -0.541309 31.6576 9.02319 38.3325C16.5951 43.6131 26.757 43.3139 34.0302 37.5356L41.0042 45.4062V46.2036C41.0042 47.0004 41.3029 47.7972 41.9008 48.2954L52.2621 58.6572C54.0553 60.4503 56.8452 60.4503 58.6383 58.6572C60.4319 56.8636 60.4319 54.0742 58.6383 52.2806L48.277 42.0189ZM2.14887 21.1965C2.14887 10.7355 10.6174 2.26701 21.0784 2.26701C31.5395 2.26701 40.0079 10.7355 40.0079 21.1965C40.0079 31.6576 31.5395 40.1261 21.0784 40.1261C10.6174 40.1261 2.14887 31.6576 2.14887 21.1965ZM35.5246 36.3399C36.0228 35.8417 36.6202 35.2444 37.0191 34.7462L43.5942 42.1187L42.0005 43.6131L35.5246 36.3399ZM55.4505 58.0593C54.7529 58.0593 54.155 57.7602 53.6569 57.3617L43.2955 47.0004C43.0961 46.8009 42.9968 46.602 42.9968 46.3028V45.506L45.3878 43.115H46.1847C46.4838 43.115 46.6828 43.2147 46.8823 43.4137L57.2436 53.775C58.2399 54.7713 58.2399 56.3654 57.2436 57.3617C56.7455 57.7602 56.0479 58.0593 55.4505 58.0593Z" fill="#A5CE39"/>
</svg>
