<svg width="56" height="61" fill="none" xmlns="http://www.w3.org/2000/svg"><path d="M53 .002H19a3 3 0 00-3 3v3H3a3 3 0 00-3 3v48a3 3 0 003 3h34a3 3 0 003-3v-3h13a3 3 0 003-3v-48a3 3 0 00-3-3zm-7 2h2v2.764l-.1-.21a1.042 1.042 0 00-1.79 0l-.1.21L46 2.002zm-9 56H3a1 1 0 01-1-1v-48a1 1 0 011-1h25v7a1 1 0 001.9.447l1.1-2.211 1.1 2.21a1 1 0 001.9-.446v-7h3a1 1 0 011 1v12.624a6.907 6.907 0 01-1.63 1.5 6.9 6.9 0 01-3.378.876l-2 .016a1 1 0 00-.992 1v7.55a8.95 8.95 0 004.23 7.634L38 42.556v14.446a1 1 0 01-1 1zm-7-50h2v2.764l-.1-.21a1.042 1.042 0 00-1.79 0l-.1.21L30 8.002zm9 32.82l-3.71-2.32A6.96 6.96 0 0132 32.568V26.01l1-.008a8.882 8.882 0 004.337-1.121A6.865 6.865 0 0039 23.508c.475.539 1.032 1 1.65 1.366a8.889 8.889 0 004.342 1.128L46 26.01v6.558a6.96 6.96 0 01-3.29 5.934L39 40.822zm15 10.18a1 1 0 01-1 1H40v-9.446l3.771-2.354A8.952 8.952 0 0048 32.568v-7.55a1 1 0 00-.992-1L45 24.002a6.894 6.894 0 01-3.383-.879A6.925 6.925 0 0140 21.626V9.002a3 3 0 00-3-3H18v-3a1 1 0 011-1h25v7a1 1 0 001.9.447L47 7.238l1.1 2.21a1 1 0 001.9-.446v-7h3a1 1 0 011 1v48z" fill="#A5CE39"/><path d="M6 22.002h8v2H6v-2zm10 0h4v2h-4v-2zm6 0h6v2h-6v-2zm-16 4h6v2H6v-2zm8 0h2v2h-2v-2zm4 0h10v2H18v-2zm-12 4h8v2H6v-2zm10 0h6v2h-6v-2zm8 0h4v2h-4v-2zm-18 4h22v2H6v-2zm0 4h6v2H6v-2zm8 0h10v2H14v-2zm12 0h2v2h-2v-2zm-20 4h2v2H6v-2zm4 0h6v2h-6v-2zm8 0h16v2H18v-2zm-12-30h2v2H6v-2zm4 0h9v2h-9v-2zm-4 4h13v2H6v-2zm37.293 11.293L38 32.588l-2.293-2.293-1.414 1.414 3 3a1 1 0 001.414 0l6-6-1.414-1.414zM42 14.002h8v2h-8v-2zm0 4h8v2h-8v-2zm0 26h8v2h-8v-2zm0 4h8v2h-8v-2z" fill="#A5CE39"/></svg>