<svg width="61" height="61" fill="none" xmlns="http://www.w3.org/2000/svg"><path d="M59.9 14.223a3 3 0 00-1.4-1.82 3.001 3.001 0 00-4.1 1.1l-.5.87a1 1 0 00-1.36.36L50 19.063l-.87-.5a1 1 0 00-1.37.37 1 1 0 00.37 1.36l.87.5-8.5 14.73-2.1 5.61-1 1.87a3 3 0 00.16 3.24l-2.25 2.76-.63-1.58a2 2 0 00-3.57-.28l-.36.61-.34-4a2 2 0 00-3.89-.47l-2.46 7.38a1 1 0 00.63 1.26.865.865 0 00.31.08 1 1 0 00.95-.68l2.45-7.38.35 4.06a2 2 0 003.71.86l.37-.61.62 1.57a2 2 0 003.42.51l2.33-2.95c.258.067.524.1.79.1a3 3 0 002.61-1.48l1-1.67 3.81-4.63L56 24.793l.87.5a1 1 0 01.37 1.37l-4 6.93a1 1 0 00.32 1.41 1 1 0 001.37-.37l4-6.93a2.998 2.998 0 00-1.1-4.1l-.87-.5 2.5-4.33a1 1 0 00-.36-1.36l.5-.87a3 3 0 00.3-2.32zm-3.77.28a1 1 0 01.61-.47 1.05 1.05 0 01.76.1.998.998 0 01.47.61 1.05 1.05 0 01-.1.76l-.5.87-1.74-1 .5-.87zM42.5 42.422l-.5-.29-1.48-.86 1.42-3.8 3.15 1.82-2.59 3.13zm-3 2.89a1 1 0 01-.3-1.31l.5-.87 1.74 1-.5.86a1 1 0 01-1.44.32zm6.73-7.66l-3.46-2 8-13.86 3.46 2-8 13.86zm9-15.59l-3.46-2 2-3.46 3.46 2-2 3.46zM15.78 44.813l-3.54 3.53-2.12-2.12a1 1 0 10-1.41 1.42l2.12 2.12c.375.372.882.58 1.41.58a2 2 0 001.42-.58l3.53-3.54a1 1 0 00-1.41-1.41z" fill="#A5CE39"/><path d="M4 47.502a8.5 8.5 0 008.5 8.5 8.5 8.5 0 008.5-8.5 1 1 0 00-2 0 6.5 6.5 0 11-6.5-6.5 6.443 6.443 0 013.9 1.3 1 1 0 101.2-1.6 8.501 8.501 0 00-13.6 6.8zm32-39.5a1 1 0 100-2H10a1 1 0 00-1 1v4a1 1 0 001 1h26a1 1 0 100-2H11v-2h25zm-23 6a1 1 0 000 2h20a1 1 0 100-2H13zm26 7H17a1 1 0 000 2h22a1 1 0 100-2zm-10 7a1 1 0 00-1-1H8a1 1 0 000 2h20a1 1 0 001-1zm10-1h-7a1 1 0 000 2h7a1 1 0 100-2zm-21 7a1 1 0 100-2H8a1 1 0 000 2h10zm4 0h7a1 1 0 100-2h-7a1 1 0 000 2z" fill="#A5CE39"/><path d="M45 46.002a1 1 0 00-1 1v10a1 1 0 01-1 1H3a1 1 0 01-1-1v-54a1 1 0 011-1h40a1 1 0 011 1v18.78a1 1 0 002 0V3.002a3 3 0 00-3-3H3a3 3 0 00-3 3v54a3 3 0 003 3h40a3 3 0 003-3v-10a1 1 0 00-1-1z" fill="#A5CE39"/></svg>