<svg width="60" height="61" fill="none" xmlns="http://www.w3.org/2000/svg"><path d="M54.952 43.115V10.237c0-2.79-2.192-4.981-4.981-4.981H39.01v1.992h10.96c1.693 0 2.989 1.295 2.989 2.99v32.877h1.992zm-49.814-2.99v9.963c0 2.79 2.191 4.981 4.981 4.981h34.87v-1.992H10.12c-1.694 0-2.989-1.296-2.989-2.99v-9.962H5.138z" fill="#A5CE39"/><path d="M42.001 10.238h8.967v1.993H42v-1.993zm1.992 4.981h6.974v1.992h-6.974V15.22zm0 4.981h6.974v1.992h-6.974v-1.993zm0 4.982h6.974v1.992h-6.974v-1.992zm0 4.982h6.974v1.993h-6.974v-1.993zm.997 4.981h5.977v1.992h-5.978v-1.992zM9 44.002h19v2H9v-2zm25 0h5v2h-5v-2z" fill="#A5CE39"/><path d="M28.5 48.501h11v1.002h-11V48.5zm-19 0h11v1.002h-11V48.5z" stroke="#A5CE39" stroke-width=".998"/><path d="M48.277 42.019c-.598-.598-1.295-.897-2.092-.897h-.697l-7.174-8.07c6.576-9.564 4.284-22.616-5.28-29.29-9.565-6.676-22.716-4.185-29.291 5.28-6.576 9.464-4.284 22.616 5.28 29.29 7.572 5.281 17.734 4.982 25.007-.796l6.974 7.87v.798c0 .796.299 1.593.897 2.091l10.361 10.362c1.793 1.793 4.583 1.793 6.376 0 1.794-1.793 1.794-4.583 0-6.376L48.277 42.019zM2.149 21.197c0-10.461 8.468-18.93 18.93-18.93 10.46 0 18.929 8.469 18.929 18.93 0 10.46-8.469 18.93-18.93 18.93-10.46 0-18.93-8.47-18.93-18.93zM35.525 36.34c.498-.498 1.095-1.096 1.494-1.594l6.575 7.373-1.593 1.494-6.476-7.273zM55.45 58.06c-.697 0-1.295-.3-1.793-.698L43.296 47c-.2-.2-.3-.398-.3-.697v-.797l2.392-2.391h.797c.299 0 .498.1.697.299l10.362 10.361c.996.996.996 2.59 0 3.587-.498.398-1.196.697-1.794.697z" fill="#A5CE39"/></svg>